<?xml version="1.0" standalone="no"?>
<!DOCTYPE svg PUBLIC "-//W3C//DTD SVG 20010904//EN"
 "http://www.w3.org/TR/2001/REC-SVG-20010904/DTD/svg10.dtd">
<svg version="1.0" xmlns="http://www.w3.org/2000/svg"
 width="421.000000pt" height="421.000000pt" viewBox="0 0 421.000000 421.000000"
 preserveAspectRatio="xMidYMid meet">
<metadata>
Created by potrace 1.14, written by Peter Selinger 2001-2017
</metadata>
<g transform="translate(0.000000,421.000000) scale(0.100000,-0.100000)"
fill="#000000" stroke="none">
<path d="M2240 3641 c-104 -28 -258 -109 -316 -166 -67 -66 -80 -92 -108 -216
-5 -22 -10 -25 -39 -21 -19 2 -48 -3 -64 -11 -43 -23 -108 -113 -129 -182 -25
-79 -25 -252 -1 -308 13 -30 14 -48 7 -89 -13 -68 -13 -288 0 -288 6 0 10 10
10 22 0 46 61 365 82 424 28 83 84 163 139 200 61 41 124 45 524 34 339 -9
360 -12 487 -76 115 -58 158 -139 177 -329 7 -65 22 -135 44 -200 19 -55 42
-132 51 -172 24 -98 63 -135 105 -100 23 18 91 40 123 39 22 -1 29 5 34 26 3
15 23 86 45 157 50 166 59 218 59 324 0 107 -21 205 -60 290 -27 56 -29 66
-15 73 20 12 66 102 70 139 4 32 -12 40 -22 12 -14 -36 -55 -63 -95 -63 -35 0
-48 8 -127 80 -117 109 -348 281 -444 331 -159 83 -382 112 -537 70z"/>
<path d="M2386 2675 c-56 -20 -68 -42 -39 -70 13 -14 28 -16 72 -11 204 22
222 20 315 -36 68 -41 90 -34 46 16 -19 21 -52 49 -73 63 -74 47 -241 67 -321
38z"/>
<path d="M1825 2633 c-66 -9 -125 -35 -155 -69 -49 -57 -39 -69 30 -33 36 19
52 21 122 16 94 -6 136 5 144 39 11 44 -1 54 -58 53 -29 -1 -66 -4 -83 -6z"/>
<path d="M1191 2539 c0 -8 -17 -46 -36 -85 -22 -43 -35 -82 -34 -104 l1 -35 8
35 c4 19 22 65 39 102 18 37 31 75 28 85 -4 14 -5 14 -6 2z"/>
<path d="M1760 2363 c-49 -8 -118 -34 -134 -52 -26 -28 -3 -35 36 -11 43 26
48 25 48 -9 0 -36 15 -41 137 -41 92 0 93 0 99 27 l7 26 19 -22 c10 -13 18
-19 18 -14 0 17 -44 51 -90 71 -49 21 -101 30 -140 25z m47 -40 c-16 -16 -18
-16 -34 0 -16 16 -15 17 17 17 32 0 33 -1 17 -17z"/>
<path d="M1582 2325 c0 -16 2 -22 5 -12 2 9 2 23 0 30 -3 6 -5 -1 -5 -18z"/>
<path d="M2397 2316 c-45 -17 -77 -43 -77 -64 0 -12 7 -9 28 10 15 14 36 28
47 32 18 5 20 1 20 -37 l0 -42 126 -3 c121 -2 127 -2 132 18 5 20 7 21 36 5
17 -8 31 -12 31 -7 0 17 -145 83 -205 92 -77 13 -92 12 -138 -4z m123 -26 c0
-19 -31 -23 -48 -6 -15 15 -14 16 16 16 18 0 32 -5 32 -10z"/>
<path d="M1572 2270 c0 -14 2 -19 5 -12 2 6 2 18 0 25 -3 6 -5 1 -5 -13z"/>
<path d="M1530 2226 c0 -13 6 -36 14 -50 l13 -26 7 41 c5 30 3 45 -6 51 -21
13 -28 9 -28 -16z"/>
<path d="M435 2175 c-27 -7 -51 -18 -53 -24 -2 -6 -9 -11 -16 -11 -15 0 -42
-46 -51 -87 -3 -18 -11 -35 -16 -39 -21 -13 -110 -161 -125 -208 -18 -57 -39
-270 -38 -387 0 -62 5 -86 31 -140 58 -124 99 -152 353 -242 198 -70 357 -135
491 -202 157 -79 189 -123 239 -327 26 -107 50 -303 50 -420 l0 -28 1170 0
1170 0 0 33 c0 73 -33 265 -56 327 -43 114 -203 383 -270 453 -14 16 -51 45
-81 64 -53 33 -182 93 -202 93 -5 0 -48 14 -95 31 -72 26 -85 34 -83 52 1 15
-13 31 -53 59 -57 41 -73 63 -84 113 -6 29 -2 32 71 75 53 31 117 84 207 173
105 103 134 126 150 121 18 -6 19 -5 7 10 -7 9 -19 16 -26 16 -7 0 -16 10 -19
23 -6 21 -7 21 -20 5 -7 -10 -21 -18 -30 -18 -25 0 -93 -58 -220 -187 -124
-125 -164 -149 -373 -220 -96 -33 -122 -37 -233 -41 -136 -4 -290 20 -380 59
-52 23 -124 90 -186 172 -80 107 -134 293 -136 472 -1 89 -1 90 -10 35 -33
-195 39 -469 156 -595 23 -25 42 -45 41 -45 -1 0 -42 22 -91 50 -87 49 -120
62 -238 95 l-58 16 23 25 c12 13 20 26 17 29 -2 3 -13 -4 -23 -15 -31 -34 -44
-32 -382 77 -268 85 -324 114 -409 208 -37 41 -70 73 -74 70 -3 -2 -19 6 -34
19 l-29 22 16 55 c15 50 47 107 96 170 l20 25 -32 1 c-18 0 -54 -5 -82 -12z"/>
<path d="M1223 2114 c-18 -8 -33 -16 -33 -19 0 -16 36 -56 71 -80 38 -25 42
-25 65 -11 26 17 38 50 32 87 -2 20 -8 24 -35 21 -17 -2 -40 1 -50 6 -12 6
-29 5 -50 -4z"/>
<path d="M3276 2079 c-43 -33 -30 -41 24 -14 28 14 50 28 50 30 0 13 -51 2
-74 -16z"/>
<path d="M1531 2064 c0 -11 3 -14 6 -6 3 7 2 16 -1 19 -3 4 -6 -2 -5 -13z"/>
<path d="M1920 1977 c0 -77 173 -106 211 -35 15 28 6 32 -36 18 -48 -16 -110
-7 -147 20 l-28 21 0 -24z"/>
<path d="M1310 1960 c0 -9 -17 -10 -59 -5 -45 5 -66 3 -90 -9 -35 -19 -36 -23
-16 -50 26 -34 19 -64 -17 -80 -29 -12 -88 -60 -88 -70 0 -3 27 -13 61 -25 89
-30 138 -5 139 71 0 32 3 37 30 43 16 4 37 16 45 28 17 24 20 93 5 102 -5 3
-10 1 -10 -5z m-80 -131 c0 -10 -5 -21 -10 -24 -16 -10 -40 15 -40 41 0 22 2
23 25 12 14 -6 25 -19 25 -29z"/>
<path d="M1790 1781 c20 -24 57 -53 89 -69 53 -26 63 -27 189 -26 161 1 197
18 60 28 -51 4 -104 10 -118 14 -72 18 163 25 247 7 18 -4 30 -12 27 -17 -10
-16 56 1 100 26 55 30 60 50 10 39 -60 -12 -374 -9 -414 5 -19 6 -69 14 -110
17 -41 3 -83 9 -94 12 -14 4 -11 -4 14 -36z"/>
<path d="M3269 1663 c-13 -16 -12 -17 4 -4 16 13 21 21 13 21 -2 0 -10 -8 -17
-17z"/>
</g>
</svg>
